# xmcd CD database file
#
# Track frame offsets:
#	150
#	16069
#	27429
#	44235
#	54976
#	67923
#	82657
#	97291
#	114000
#	135183
#	154932
#
# Disc length: 2243 seconds
#
# Revision: 0
# Processed by: cddbd v1.5PL3 Copyright (c) Steve Scherf et al.
# Submitted via: CDex 1.51
#
DISCID=7f08c10b
DTITLE=Alex Harvey - Roman Wall Blues 
DYEAR=1969
DGENRE=Blues
TTITLE0=Midnight Moses
TTITLE1=Hello L.A. Bye Bye Birmingham
TTITLE2=Broken Hearted Fairytale
TTITLE3=Donna
TTITLE4=Roman Wall Blues
TTITLE5=Jumping Jack Flash
TTITLE6=Hammer Song
TTITLE7=Let my Bluebird Sing
TTITLE8=Maxine
TTITLE9=Down At Bart's Place
TTITLE10=Candy
EXTD=YEAR: 1969
EXTT0=
EXTT1=
EXTT2=
EXTT3=
EXTT4=
EXTT5=
EXTT6=
EXTT7=
EXTT8=
EXTT9=
EXTT10=
PLAYORDER=
